<mxfile host="65bd71144e">
    <diagram id="_G0xx6pigjN42j6tCMDQ" name="ページ1">
        <mxGraphModel dx="782" dy="600" grid="1" gridSize="10" guides="1" tooltips="1" connect="1" arrows="1" fold="1" page="1" pageScale="1" pageWidth="827" pageHeight="1169" background="#ffffff" math="0" shadow="0">
            <root>
                <mxCell id="0"/>
                <mxCell id="1" parent="0"/>
                <mxCell id="G6akz1HMbs0-0mWIFRtQ-12" value="" style="rounded=0;whiteSpace=wrap;html=1;strokeColor=#666666;strokeWidth=2;fontColor=#333333;fillColor=#f5f5f5;" parent="1" vertex="1">
                    <mxGeometry x="50" y="40" width="690" height="530" as="geometry"/>
                </mxCell>
                <mxCell id="2" value="" style="rounded=0;whiteSpace=wrap;html=1;fillColor=#f5f5f5;fontColor=#333333;strokeColor=#000000;strokeWidth=2;" parent="1" vertex="1">
                    <mxGeometry x="239" y="140" width="401" height="350" as="geometry"/>
                </mxCell>
                <mxCell id="4" value="" style="rounded=0;whiteSpace=wrap;html=1;strokeColor=#666666;strokeWidth=2;fillColor=#f5f5f5;fontColor=#333333;" parent="1" vertex="1">
                    <mxGeometry x="300" y="190" width="260" height="250" as="geometry"/>
                </mxCell>
                <mxCell id="3" value="" style="outlineConnect=0;dashed=0;verticalLabelPosition=bottom;verticalAlign=top;align=center;html=1;shape=mxgraph.aws3.cloud_2;fillColor=#F58534;gradientColor=none;strokeColor=#000000;strokeWidth=2;" parent="1" vertex="1">
                    <mxGeometry x="239" y="140" width="50" height="50" as="geometry"/>
                </mxCell>
                <mxCell id="G6akz1HMbs0-0mWIFRtQ-4" value="" style="outlineConnect=0;dashed=0;verticalLabelPosition=bottom;verticalAlign=top;align=center;html=1;shape=mxgraph.aws3.virtual_private_cloud;fillColor=#F58534;gradientColor=none;strokeColor=#000000;strokeWidth=2;" parent="1" vertex="1">
                    <mxGeometry x="315.5" y="170" width="46" height="30" as="geometry"/>
                </mxCell>
                <mxCell id="G6akz1HMbs0-0mWIFRtQ-5" value="" style="rounded=0;whiteSpace=wrap;html=1;strokeWidth=2;opacity=70;fillColor=#f5f5f5;fontColor=#333333;strokeColor=#666666;" parent="1" vertex="1">
                    <mxGeometry x="307" y="262.5" width="93" height="145" as="geometry"/>
                </mxCell>
                <mxCell id="G6akz1HMbs0-0mWIFRtQ-6" value="" style="rounded=0;whiteSpace=wrap;html=1;strokeColor=#666666;strokeWidth=2;opacity=70;fillColor=#f5f5f5;fontColor=#333333;" parent="1" vertex="1">
                    <mxGeometry x="460" y="262.5" width="90" height="147" as="geometry"/>
                </mxCell>
                <mxCell id="G6akz1HMbs0-0mWIFRtQ-8" value="サブネット" style="text;html=1;strokeColor=none;fillColor=none;align=center;verticalAlign=middle;whiteSpace=wrap;rounded=0;strokeWidth=2;opacity=70;fontColor=#000000;" parent="1" vertex="1">
                    <mxGeometry x="307" y="262.5" width="63" height="20" as="geometry"/>
                </mxCell>
                <mxCell id="G6akz1HMbs0-0mWIFRtQ-10" value="サブネット" style="text;html=1;strokeColor=none;fillColor=none;align=center;verticalAlign=middle;whiteSpace=wrap;rounded=0;strokeWidth=2;opacity=70;fontColor=#000000;" parent="1" vertex="1">
                    <mxGeometry x="460" y="262.5" width="63" height="20" as="geometry"/>
                </mxCell>
                <mxCell id="G6akz1HMbs0-0mWIFRtQ-11" value="" style="sketch=0;points=[[0,0,0],[0.25,0,0],[0.5,0,0],[0.75,0,0],[1,0,0],[0,1,0],[0.25,1,0],[0.5,1,0],[0.75,1,0],[1,1,0],[0,0.25,0],[0,0.5,0],[0,0.75,0],[1,0.25,0],[1,0.5,0],[1,0.75,0]];outlineConnect=0;fontColor=#232F3E;gradientColor=#F78E04;gradientDirection=north;fillColor=#D05C17;strokeColor=#ffffff;dashed=0;verticalLabelPosition=bottom;verticalAlign=top;align=center;html=1;fontSize=12;fontStyle=0;aspect=fixed;shape=mxgraph.aws4.resourceIcon;resIcon=mxgraph.aws4.ec2;strokeWidth=2;" parent="1" vertex="1">
                    <mxGeometry x="327" y="350" width="53" height="53" as="geometry"/>
                </mxCell>
                <mxCell id="G6akz1HMbs0-0mWIFRtQ-13" value="" style="curved=1;endArrow=classic;html=1;fontColor=#000000;startArrow=none;" parent="1" source="G6akz1HMbs0-0mWIFRtQ-18" edge="1">
                    <mxGeometry width="50" height="50" relative="1" as="geometry">
                        <mxPoint x="170" y="490" as="sourcePoint"/>
                        <mxPoint x="220" y="440" as="targetPoint"/>
                        <Array as="points">
                            <mxPoint x="170" y="440"/>
                        </Array>
                    </mxGeometry>
                </mxCell>
                <mxCell id="G6akz1HMbs0-0mWIFRtQ-26" style="edgeStyle=none;html=1;strokeColor=#000000;strokeWidth=4;fontSize=22;fontColor=#000000;" parent="1" source="G6akz1HMbs0-0mWIFRtQ-14" target="G6akz1HMbs0-0mWIFRtQ-11" edge="1">
                    <mxGeometry relative="1" as="geometry"/>
                </mxCell>
                <mxCell id="G6akz1HMbs0-0mWIFRtQ-14" value="" style="dashed=0;outlineConnect=0;html=1;align=center;labelPosition=center;verticalLabelPosition=bottom;verticalAlign=top;shape=mxgraph.weblogos.github;strokeColor=#000000;strokeWidth=2;fontColor=#000000;" parent="1" vertex="1">
                    <mxGeometry x="150" y="341.5" width="70" height="70" as="geometry"/>
                </mxCell>
                <mxCell id="G6akz1HMbs0-0mWIFRtQ-23" value="" style="verticalLabelPosition=bottom;html=1;verticalAlign=top;align=center;strokeColor=none;fillColor=#00BEF2;shape=mxgraph.azure.user;strokeWidth=2;fontSize=22;fontColor=#000000;" parent="1" vertex="1">
                    <mxGeometry x="90" y="490" width="75" height="80" as="geometry"/>
                </mxCell>
                <mxCell id="G6akz1HMbs0-0mWIFRtQ-15" value="" style="endArrow=classic;html=1;strokeColor=#000000;fontColor=#000000;strokeWidth=4;" parent="1" target="G6akz1HMbs0-0mWIFRtQ-14" edge="1">
                    <mxGeometry width="50" height="50" relative="1" as="geometry">
                        <mxPoint x="180" y="500" as="sourcePoint"/>
                        <mxPoint x="220" y="450" as="targetPoint"/>
                    </mxGeometry>
                </mxCell>
                <mxCell id="G6akz1HMbs0-0mWIFRtQ-16" value="&lt;font style=&quot;font-size: 22px;&quot;&gt;&lt;b style=&quot;background-color: rgb(255, 153, 255);&quot;&gt;developer&lt;/b&gt;&lt;/font&gt;" style="text;strokeColor=none;fillColor=none;align=left;verticalAlign=middle;spacingLeft=4;spacingRight=4;overflow=hidden;points=[[0,0.5],[1,0.5]];portConstraint=eastwest;rotatable=0;whiteSpace=wrap;html=1;strokeWidth=2;fontColor=#000000;" parent="1" vertex="1">
                    <mxGeometry x="110" y="530" width="125" height="40" as="geometry"/>
                </mxCell>
                <mxCell id="G6akz1HMbs0-0mWIFRtQ-17" value="Github&lt;br&gt;Actions" style="text;html=1;strokeColor=none;fillColor=none;align=center;verticalAlign=middle;whiteSpace=wrap;rounded=0;strokeWidth=2;fontSize=21;fontColor=#000000;" parent="1" vertex="1">
                    <mxGeometry x="155" y="300" width="60" height="30" as="geometry"/>
                </mxCell>
                <mxCell id="G6akz1HMbs0-0mWIFRtQ-22" value="" style="curved=1;endArrow=none;html=1;fontColor=#000000;" parent="1" target="G6akz1HMbs0-0mWIFRtQ-18" edge="1">
                    <mxGeometry width="50" height="50" relative="1" as="geometry">
                        <mxPoint x="170" y="490" as="sourcePoint"/>
                        <mxPoint x="220" y="440" as="targetPoint"/>
                        <Array as="points">
                            <mxPoint x="220" y="490"/>
                        </Array>
                    </mxGeometry>
                </mxCell>
                <mxCell id="G6akz1HMbs0-0mWIFRtQ-18" value="" style="sketch=0;aspect=fixed;html=1;points=[];align=center;image;fontSize=12;image=img/lib/mscae/Docker.svg;strokeColor=#000000;strokeWidth=2;fontColor=#000000;" parent="1" vertex="1">
                    <mxGeometry x="150" y="460" width="85.37" height="70" as="geometry"/>
                </mxCell>
                <mxCell id="5" value="&lt;span style=&quot;font-size: 18px;&quot;&gt;&lt;b style=&quot;&quot;&gt;&lt;font color=&quot;#030303&quot;&gt;EC2&lt;/font&gt;&lt;/b&gt;&lt;/span&gt;" style="text;html=1;strokeColor=none;fillColor=none;align=center;verticalAlign=middle;whiteSpace=wrap;rounded=0;strokeWidth=1;" vertex="1" parent="1">
                    <mxGeometry x="315.5" y="355.75" width="73" height="41.5" as="geometry"/>
                </mxCell>
                <mxCell id="6" value="" style="outlineConnect=0;dashed=0;verticalLabelPosition=bottom;verticalAlign=top;align=center;html=1;shape=mxgraph.aws3.rds;fillColor=#2E73B8;gradientColor=none;labelBackgroundColor=none;strokeWidth=1;fontFamily=Helvetica;fontSize=18;fontColor=#000000;" vertex="1" parent="1">
                    <mxGeometry x="325.5" y="282.5" width="53" height="55" as="geometry"/>
                </mxCell>
                <mxCell id="7" value="&lt;b&gt;&lt;font color=&quot;#f4f0f0&quot;&gt;RDS&lt;/font&gt;&lt;/b&gt;" style="text;html=1;strokeColor=none;fillColor=none;align=center;verticalAlign=middle;whiteSpace=wrap;rounded=0;labelBackgroundColor=none;strokeWidth=1;fontFamily=Helvetica;fontSize=18;fontColor=#000000;" vertex="1" parent="1">
                    <mxGeometry x="322" y="295" width="60" height="30" as="geometry"/>
                </mxCell>
                <mxCell id="9" value="" style="endArrow=classic;startArrow=none;html=1;strokeColor=#0d0c0c;strokeWidth=3;fontFamily=Helvetica;fontSize=18;fontColor=#030303;exitX=1;exitY=0.5;exitDx=0;exitDy=0;" edge="1" parent="1" source="12">
                    <mxGeometry width="50" height="50" relative="1" as="geometry">
                        <mxPoint x="420" y="380" as="sourcePoint"/>
                        <mxPoint x="460" y="335" as="targetPoint"/>
                    </mxGeometry>
                </mxCell>
                <mxCell id="11" value="" style="endArrow=classic;html=1;strokeColor=#0d0c0c;strokeWidth=3;fontFamily=Helvetica;fontSize=18;fontColor=#030303;" edge="1" parent="1">
                    <mxGeometry width="50" height="50" relative="1" as="geometry">
                        <mxPoint x="430" y="330" as="sourcePoint"/>
                        <mxPoint x="430" y="90" as="targetPoint"/>
                    </mxGeometry>
                </mxCell>
                <mxCell id="G6akz1HMbs0-0mWIFRtQ-24" value="gateway" style="sketch=0;outlineConnect=0;fontColor=#232F3E;gradientColor=none;strokeColor=#232F3E;fillColor=#ffffff;dashed=0;verticalLabelPosition=bottom;verticalAlign=top;align=center;html=1;fontSize=12;fontStyle=0;aspect=fixed;shape=mxgraph.aws4.resourceIcon;resIcon=mxgraph.aws4.internet_gateway;labelBackgroundColor=#FF99FF;strokeWidth=2;" parent="1" vertex="1">
                    <mxGeometry x="410" y="170" width="40" height="40" as="geometry"/>
                </mxCell>
                <mxCell id="13" value="" style="endArrow=none;startArrow=classic;html=1;strokeColor=#0d0c0c;strokeWidth=3;fontFamily=Helvetica;fontSize=18;fontColor=#030303;exitX=1;exitY=0.5;exitDx=0;exitDy=0;" edge="1" parent="1" source="G6akz1HMbs0-0mWIFRtQ-5" target="12">
                    <mxGeometry width="50" height="50" relative="1" as="geometry">
                        <mxPoint x="399.9999999999999" y="334.9999999999999" as="sourcePoint"/>
                        <mxPoint x="460.0000000000001" y="334.9999999999999" as="targetPoint"/>
                    </mxGeometry>
                </mxCell>
                <mxCell id="12" value="Route table" style="sketch=0;outlineConnect=0;fontColor=#232F3E;gradientColor=none;strokeColor=#232F3E;fillColor=#ffffff;dashed=0;verticalLabelPosition=bottom;verticalAlign=top;align=center;html=1;fontSize=12;fontStyle=0;aspect=fixed;shape=mxgraph.aws4.resourceIcon;resIcon=mxgraph.aws4.route_table;labelBackgroundColor=none;strokeWidth=1;fontFamily=Helvetica;" vertex="1" parent="1">
                    <mxGeometry x="414" y="321.25" width="27.5" height="27.5" as="geometry"/>
                </mxCell>
                <mxCell id="14" value="" style="shape=actor;whiteSpace=wrap;html=1;labelBackgroundColor=none;strokeWidth=1;fontFamily=Helvetica;fontSize=18;fontColor=#030303;" vertex="1" parent="1">
                    <mxGeometry x="410" y="50" width="40" height="60" as="geometry"/>
                </mxCell>
                <mxCell id="15" value="&lt;b&gt;User&lt;/b&gt;" style="text;html=1;strokeColor=none;fillColor=none;align=center;verticalAlign=middle;whiteSpace=wrap;rounded=0;labelBackgroundColor=none;strokeWidth=1;fontFamily=Helvetica;fontSize=18;fontColor=#030303;" vertex="1" parent="1">
                    <mxGeometry x="441.5" y="50" width="60" height="30" as="geometry"/>
                </mxCell>
                <mxCell id="16" value="&lt;font style=&quot;font-size: 16px;&quot;&gt;自動テスト&lt;br&gt;自動デプロイ&lt;/font&gt;" style="text;strokeColor=none;fillColor=none;html=1;fontSize=24;fontStyle=1;verticalAlign=middle;align=center;labelBackgroundColor=none;strokeWidth=1;fontFamily=Helvetica;fontColor=#030303;" vertex="1" parent="1">
                    <mxGeometry x="70" y="372.87" width="50" height="7.25" as="geometry"/>
                </mxCell>
            </root>
        </mxGraphModel>
    </diagram>
</mxfile>